<svg width="99" height="98" viewBox="0 0 99 98" fill="none" xmlns="http://www.w3.org/2000/svg">
<g id="banner-arrow.svg" clip-path="url(#clip0_3_71)">
<g id="Clip path group">
<g id="Group">
<path id="Vector" d="M71.759 58.9906C71.9257 54.9946 71.9376 50.8856 69.7005 47.3942C67.6991 44.276 64.443 42.1708 60.9738 41.0236C57.1954 39.7758 53.0608 39.8245 49.2027 40.6863C47.2178 41.1294 45.2873 41.7681 43.4134 42.5557C42.485 42.9501 41.5662 43.3784 40.6663 43.8324C39.7664 44.2865 38.852 44.7464 38.1577 45.4895C37.5671 46.1276 37.2317 47.0221 37.4031 47.8862C37.5828 48.8014 38.3636 49.3926 39.206 49.6823C41.1094 50.3361 43.431 49.8563 45.2607 49.1453C48.8033 47.7754 52.3169 44.3987 52.0127 40.3054C51.7086 36.2121 47.9436 33.4636 44.2688 32.2951C40.5939 31.1267 36.1232 30.8432 32.1172 31.0532C24.5141 31.4494 17.0112 33.8107 10.6478 38.016C9.85775 38.5342 9.09451 39.0876 8.35022 39.6668C7.49328 40.3295 9.70214 40.9929 10.3024 40.5435C15.629 36.5381 21.8058 33.82 28.3965 32.747C31.6493 32.2193 34.9735 32.073 38.2516 32.3895C41.789 32.726 45.7038 33.4241 48.0843 36.3211C49.1545 37.6237 49.8001 39.2831 49.6547 40.9841C49.5091 42.685 48.6105 44.3779 47.3926 45.6564C46.175 46.9351 44.6639 47.8221 43.028 48.3409C42.327 48.5632 41.5875 48.7217 40.8501 48.7622C40.5093 48.7791 40.194 48.8069 39.9598 48.5296C39.6806 48.2035 39.6598 47.7304 39.7295 47.3251C40.0243 45.6515 42.1788 44.9048 43.5316 44.2667C45.1585 43.4999 46.8368 42.8382 48.5609 42.3208C51.7229 41.3739 55.1505 40.9259 58.4191 41.5896C61.847 42.2849 65.0788 44.2071 67.1457 47.0433C69.6218 50.4331 69.6047 54.6529 69.456 58.6625C69.4266 59.4955 71.7222 59.7549 71.7581 58.9783L71.7633 58.9805L71.759 58.9906Z" fill="#02D1AE" fill-opacity="0.7"/>
<path id="Vector_2" d="M75.8325 56.5436L73.0298 62.6134L71.6788 65.5356C71.3017 66.3477 70.9927 67.3729 70.2968 67.9727L71.4323 67.4863C70.568 67.0378 70.1507 65.9706 69.7585 65.1404C69.3172 64.1995 68.9142 63.2372 68.5066 62.2776C67.6885 60.3536 66.8623 58.3023 65.5264 56.6661C65.0207 56.0496 63.4255 57.595 63.8582 58.2833C65.077 60.2169 66.0118 62.2267 66.9013 64.3244C67.3415 65.3538 67.777 66.3858 68.2944 67.3849C68.7154 68.199 69.1584 68.8944 69.9901 69.3296C70.3418 69.5108 70.8959 69.0396 71.1256 68.8432C71.9871 68.1007 72.4942 67.1159 72.963 66.096C73.4813 64.9733 73.9997 63.8505 74.5229 62.7251L77.635 55.9813C77.8481 55.5177 77.4661 55.2593 77.0462 55.3734C76.4857 55.5279 76.0637 56.0448 75.8304 56.551L75.8325 56.5436Z" fill="#02D1AE" fill-opacity="0.7"/>
</g>
</g>
</g>
<defs>
<clipPath id="clip0_3_71">
<rect width="90" height="48.8035" fill="white" transform="translate(33.6299) rotate(43.4738)"/>
</clipPath>
</defs>
</svg>
