<svg width="92" height="41" viewBox="0 0 92 41" fill="none" xmlns="http://www.w3.org/2000/svg">
<g id="Group">
<path id="Vector" d="M84.4971 37.2479C84.4971 39.158 86.0461 40.6975 87.9467 40.6975C89.8568 40.6975 91.3963 39.1485 91.3963 37.2479C91.3963 35.3378 89.8473 33.7983 87.9467 33.7983C86.0461 33.7983 84.4971 35.3473 84.4971 37.2479Z" fill="#02D1AE" fill-opacity="0.7"/>
<path id="Vector_2" d="M84.4971 20.3488C84.4971 22.2589 86.0461 23.7984 87.9467 23.7984C89.8568 23.7984 91.3963 22.2494 91.3963 20.3488C91.3963 18.4387 89.8473 16.8992 87.9467 16.8992C86.0461 16.8992 84.4971 18.4387 84.4971 20.3488Z" fill="#02D1AE" fill-opacity="0.7"/>
<path id="Vector_3" d="M67.5977 37.2479C67.5977 39.158 69.1467 40.6975 71.0473 40.6975C72.9574 40.6975 74.4969 39.1485 74.4969 37.2479C74.4969 35.3378 72.9479 33.7983 71.0473 33.7983C69.1372 33.7983 67.5977 35.3473 67.5977 37.2479Z" fill="#02D1AE" fill-opacity="0.7"/>
<path id="Vector_4" d="M71.0473 23.7984C72.9524 23.7984 74.4969 22.2539 74.4969 20.3488C74.4969 18.4436 72.9524 16.8992 71.0473 16.8992C69.1421 16.8992 67.5977 18.4436 67.5977 20.3488C67.5977 22.2539 69.1421 23.7984 71.0473 23.7984Z" fill="#02D1AE" fill-opacity="0.7"/>
<path id="Vector_5" d="M50.6982 37.2479C50.6982 39.158 52.2472 40.6975 54.1478 40.6975C56.0579 40.6975 57.5974 39.1485 57.5974 37.2479C57.5974 35.3378 56.0484 33.7983 54.1478 33.7983C52.2472 33.7983 50.6982 35.3473 50.6982 37.2479Z" fill="#02D1AE" fill-opacity="0.7"/>
<path id="Vector_6" d="M54.1478 23.7984C56.053 23.7984 57.5974 22.2539 57.5974 20.3488C57.5974 18.4436 56.053 16.8992 54.1478 16.8992C52.2427 16.8992 50.6982 18.4436 50.6982 20.3488C50.6982 22.2539 52.2427 23.7984 54.1478 23.7984Z" fill="#02D1AE" fill-opacity="0.7"/>
<path id="Vector_7" d="M33.7988 37.2479C33.7988 39.158 35.3478 40.6975 37.2484 40.6975C39.1585 40.6975 40.698 39.1485 40.698 37.2479C40.698 35.3378 39.149 33.7983 37.2484 33.7983C35.3383 33.7983 33.7988 35.3473 33.7988 37.2479Z" fill="#02D1AE" fill-opacity="0.7"/>
<path id="Vector_8" d="M33.7988 20.3488C33.7988 22.2589 35.3478 23.7984 37.2484 23.7984C39.1585 23.7984 40.698 22.2494 40.698 20.3488C40.698 18.4387 39.149 16.8992 37.2484 16.8992C35.3383 16.8992 33.7988 18.4387 33.7988 20.3488Z" fill="#02D1AE" fill-opacity="0.7"/>
<path id="Vector_9" d="M16.8994 37.2479C16.8994 39.158 18.4484 40.6975 20.349 40.6975C22.2591 40.6975 23.7986 39.1485 23.7986 37.2479C23.7986 35.3378 22.2496 33.7983 20.349 33.7983C18.4484 33.7983 16.8994 35.3473 16.8994 37.2479Z" fill="#02D1AE" fill-opacity="0.7"/>
<path id="Vector_10" d="M20.349 23.7984C22.2542 23.7984 23.7986 22.2539 23.7986 20.3488C23.7986 18.4436 22.2542 16.8992 20.349 16.8992C18.4439 16.8992 16.8994 18.4436 16.8994 20.3488C16.8994 22.2539 18.4439 23.7984 20.349 23.7984Z" fill="#02D1AE" fill-opacity="0.7"/>
<path id="Vector_11" d="M0 37.2479C0 39.158 1.54899 40.6975 3.4496 40.6975C5.35971 40.6975 6.8992 39.1485 6.8992 37.2479C6.8992 35.3378 5.3502 33.7983 3.4496 33.7983C1.54899 33.7983 0 35.3473 0 37.2479Z" fill="#02D1AE" fill-opacity="0.7"/>
<path id="Vector_12" d="M3.4496 23.7984C5.35476 23.7984 6.8992 22.2539 6.8992 20.3488C6.8992 18.4436 5.35476 16.8992 3.4496 16.8992C1.54444 16.8992 0 18.4436 0 20.3488C0 22.2539 1.54444 23.7984 3.4496 23.7984Z" fill="#02D1AE" fill-opacity="0.7"/>
<path id="Vector_13" d="M84.4971 3.4496C84.4971 5.35971 86.0461 6.8992 87.9467 6.8992C89.8568 6.8992 91.3963 5.3502 91.3963 3.4496C91.3963 1.53949 89.8473 0 87.9467 0C86.0461 0 84.4971 1.54899 84.4971 3.4496Z" fill="#02D1AE" fill-opacity="0.7"/>
<path id="Vector_14" d="M71.0473 6.8992C72.9524 6.8992 74.4969 5.35476 74.4969 3.4496C74.4969 1.54444 72.9524 0 71.0473 0C69.1421 0 67.5977 1.54444 67.5977 3.4496C67.5977 5.35476 69.1421 6.8992 71.0473 6.8992Z" fill="#02D1AE" fill-opacity="0.7"/>
<path id="Vector_15" d="M54.1478 6.8992C56.053 6.8992 57.5974 5.35476 57.5974 3.4496C57.5974 1.54444 56.053 0 54.1478 0C52.2427 0 50.6982 1.54444 50.6982 3.4496C50.6982 5.35476 52.2427 6.8992 54.1478 6.8992Z" fill="#02D1AE" fill-opacity="0.7"/>
<path id="Vector_16" d="M33.7988 3.4496C33.7988 5.35971 35.3478 6.8992 37.2484 6.8992C39.1585 6.8992 40.698 5.3502 40.698 3.4496C40.698 1.53949 39.149 0 37.2484 0C35.3383 0 33.7988 1.54899 33.7988 3.4496Z" fill="#02D1AE" fill-opacity="0.7"/>
<path id="Vector_17" d="M20.349 6.8992C22.2542 6.8992 23.7986 5.35476 23.7986 3.4496C23.7986 1.54444 22.2542 0 20.349 0C18.4439 0 16.8994 1.54444 16.8994 3.4496C16.8994 5.35476 18.4439 6.8992 20.349 6.8992Z" fill="#02D1AE" fill-opacity="0.7"/>
<path id="Vector_18" d="M3.4496 6.8992C5.35476 6.8992 6.8992 5.35476 6.8992 3.4496C6.8992 1.54444 5.35476 0 3.4496 0C1.54444 0 0 1.54444 0 3.4496C0 5.35476 1.54444 6.8992 3.4496 6.8992Z" fill="#02D1AE" fill-opacity="0.7"/>
</g>
</svg>
